sim_grf.mot
version=1
nRows=44
nColumns=19
inDegrees=no
endheader
time	ground_force_vx	ground_force_vy	ground_force_vz	ground_force_px	ground_force_py	ground_force_pz	1_ground_force_vx	1_ground_force_vy	1_ground_force_vz	1_ground_force_px	1_ground_force_py	1_ground_force_pz	ground_torque_x	ground_torque_y	ground_torque_z	1_ground_torque_x	1_ground_torque_y	1_ground_torque_z
2.500000	-0.000000	-0.000000	-0.000000	0.000000	0.000000	0.000000	49.036700	704.944000	-0.000000	2.247370	-0.000000	-0.083148	0.000000	0.000000	0.000000	0.000000	0.000000	0.000000
2.510000	-0.000000	-0.000000	-0.000000	0.000000	0.000000	0.000000	52.051900	692.261000	-0.000000	2.254090	-0.000000	-0.083777	0.000000	0.000000	0.000000	0.000000	0.000000	0.000000
2.520000	-0.000000	-0.000000	-0.000000	0.000000	0.000000	0.000000	55.742100	678.271000	-0.000000	2.261280	-0.000000	-0.084448	0.000000	0.000000	0.000000	0.000000	0.000000	0.000000
2.530000	-0.000000	-0.000000	-0.000000	0.000000	0.000000	0.000000	56.864200	665.299000	-0.000000	2.268500	-0.000000	-0.085125	0.000000	0.000000	0.000000	0.000000	0.000000	0.000000
2.540000	-24.845300	19.258800	-0.000000	2.671600	-0.000000	0.106420	57.911600	655.295000	-0.000000	2.275300	-0.000000	-0.085759	0.000000	0.000000	0.000000	0.000000	0.000000	0.000000
2.550000	-114.218000	108.656000	-0.000000	2.676840	-0.000000	0.106420	56.683200	649.206000	-0.000000	2.280960	-0.000000	-0.086287	0.000000	0.000000	0.000000	0.000000	0.000000	0.000000
2.560000	-55.489900	210.550000	-0.000000	2.681790	-0.000000	0.106420	56.925300	651.865000	-0.000000	2.283390	-0.000000	-0.086500	0.000000	0.000000	0.000000	0.000000	0.000000	0.000000
2.570000	-51.594500	251.862000	-0.000000	2.684570	-0.000000	0.106420	59.410300	657.700000	-0.000000	2.283690	-0.000000	-0.086500	0.000000	0.000000	0.000000	0.000000	0.000000	0.000000
2.580000	-55.067000	231.921000	-0.000000	2.687580	-0.000000	0.106420	63.089200	658.566000	-0.000000	2.284040	-0.000000	-0.086500	0.000000	0.000000	0.000000	0.000000	0.000000	0.000000
2.590000	-48.866500	229.074000	-0.000000	2.699000	-0.000000	0.107160	70.627400	655.652000	-0.000000	2.284470	-0.000000	-0.086500	0.000000	0.000000	0.000000	0.000000	0.000000	0.000000
2.600000	-175.751000	731.162000	-0.000000	2.738850	-0.000000	0.110926	73.750700	651.049000	-0.000000	2.284850	-0.000000	-0.086500	0.000000	0.000000	0.000000	0.000000	0.000000	0.000000
2.610000	-156.702000	799.845000	-0.000000	2.737990	-0.000000	0.110874	71.661100	638.602000	-0.000000	2.285220	-0.000000	-0.086500	0.000000	0.000000	0.000000	0.000000	0.000000	0.000000
2.620000	-93.047000	668.594000	-0.000000	2.732780	-0.000000	0.110346	73.160200	615.789000	-0.000000	2.285740	-0.000000	-0.086500	0.000000	0.000000	0.000000	0.000000	0.000000	0.000000
2.630000	-26.952500	466.753000	-0.000000	2.724890	-0.000000	0.109526	78.833900	586.985000	-0.000000	2.286410	-0.000000	-0.086500	0.000000	0.000000	0.000000	0.000000	0.000000	0.000000
2.640000	-31.682600	314.845000	-0.000000	2.718300	-0.000000	0.108916	122.836000	538.989000	-0.000000	2.287890	-0.000000	-0.086500	0.000000	0.000000	0.000000	0.000000	0.000000	0.000000
2.650000	-31.668500	223.716000	-0.000000	2.720730	-0.000000	0.109137	125.880000	515.011000	-0.000000	2.288520	-0.000000	-0.086500	0.000000	0.000000	0.000000	0.000000	0.000000	0.000000
2.660000	-64.087600	219.841000	-0.000000	2.728120	-0.000000	0.109847	129.097000	486.789000	-0.000000	2.289290	-0.000000	-0.086500	0.000000	0.000000	0.000000	0.000000	0.000000	0.000000
2.670000	-76.434000	244.491000	-0.000000	2.733290	-0.000000	0.110288	132.296000	454.370000	-0.000000	2.290180	-0.000000	-0.086500	0.000000	0.000000	0.000000	0.000000	0.000000	0.000000
2.680000	-88.231100	309.307000	-0.000000	2.742300	-0.000000	0.111099	133.477000	416.581000	-0.000000	2.291190	-0.000000	-0.086500	0.000000	0.000000	0.000000	0.000000	0.000000	0.000000
2.690000	-81.632400	395.881000	-0.000000	2.743870	-0.000000	0.111203	131.215000	373.005000	-0.000000	2.292310	-0.000000	-0.086500	0.000000	0.000000	0.000000	0.000000	0.000000	0.000000
2.700000	-71.866600	476.101000	-0.000000	2.744530	-0.000000	0.111241	123.835000	324.951000	-0.000000	2.293530	-0.000000	-0.086500	0.000000	0.000000	0.000000	0.000000	0.000000	0.000000
2.710000	-67.296700	527.073000	-0.000000	2.745690	-0.000000	0.111343	111.302000	274.217000	-0.000000	2.294840	-0.000000	-0.086500	0.000000	0.000000	0.000000	0.000000	0.000000	0.000000
2.720000	-66.512100	548.339000	-0.000000	2.747020	-0.000000	0.111466	93.449300	220.694000	-0.000000	2.296290	-0.000000	-0.086500	0.000000	0.000000	0.000000	0.000000	0.000000	0.000000
2.730000	-66.753800	554.976000	-0.000000	2.748750	-0.000000	0.111626	73.035500	166.477000	-0.000000	2.297920	-0.000000	-0.086500	0.000000	0.000000	0.000000	0.000000	0.000000	0.000000
2.740000	-66.167800	560.040000	-0.000000	2.750540	-0.000000	0.111787	57.172900	118.939000	-0.000000	2.299880	-0.000000	-0.086500	0.000000	0.000000	0.000000	0.000000	0.000000	0.000000
2.750000	-63.065300	570.322000	-0.000000	2.752020	-0.000000	0.111913	42.223800	81.728700	-0.000000	2.301990	-0.000000	-0.086500	0.000000	0.000000	0.000000	0.000000	0.000000	0.000000
2.760000	-58.193000	587.790000	-0.000000	2.753310	-0.000000	0.112019	24.360400	49.501300	-0.000000	2.304170	-0.000000	-0.086500	0.000000	0.000000	0.000000	0.000000	0.000000	0.000000
2.770000	-52.850800	611.704000	-0.000000	2.754430	-0.000000	0.112110	5.855720	20.682000	-0.000000	2.306480	-0.000000	-0.086500	0.000000	0.000000	0.000000	0.000000	0.000000	0.000000
2.780000	-47.986200	637.459000	-0.000000	2.755470	-0.000000	0.112196	-1.270910	1.328260	-0.000000	2.309570	-0.000000	-0.086500	0.000000	0.000000	0.000000	0.000000	0.000000	0.000000
2.790000	-43.968800	663.904000	-0.000000	2.756510	-0.000000	0.112283	-0.000000	-0.000000	-0.000000	0.000000	0.000000	0.000000	0.000000	0.000000	0.000000	0.000000	0.000000	0.000000
2.800000	-40.561500	688.092000	-0.000000	2.757580	-0.000000	0.112376	-0.000000	-0.000000	-0.000000	0.000000	0.000000	0.000000	0.000000	0.000000	0.000000	0.000000	0.000000	0.000000
2.810000	-37.026700	707.151000	-0.000000	2.758690	-0.000000	0.112474	-0.000000	-0.000000	-0.000000	0.000000	0.000000	0.000000	0.000000	0.000000	0.000000	0.000000	0.000000	0.000000
2.820000	-33.003100	721.894000	-0.000000	2.759790	-0.000000	0.112571	-0.000000	-0.000000	-0.000000	0.000000	0.000000	0.000000	0.000000	0.000000	0.000000	0.000000	0.000000	0.000000
2.830000	-28.465300	733.903000	-0.000000	2.760940	-0.000000	0.112671	-0.000000	-0.000000	-0.000000	0.000000	0.000000	0.000000	0.000000	0.000000	0.000000	0.000000	0.000000	0.000000
2.840000	-23.660200	742.208000	-0.000000	2.762200	-0.000000	0.112783	-0.000000	-0.000000	-0.000000	0.000000	0.000000	0.000000	0.000000	0.000000	0.000000	0.000000	0.000000	0.000000
2.850000	-19.623700	746.571000	-0.000000	2.763570	-0.000000	0.112906	-0.000000	-0.000000	-0.000000	0.000000	0.000000	0.000000	0.000000	0.000000	0.000000	0.000000	0.000000	0.000000
2.860000	-15.443700	747.481000	-0.000000	2.765130	-0.000000	0.113046	-0.000000	-0.000000	-0.000000	0.000000	0.000000	0.000000	0.000000	0.000000	0.000000	0.000000	0.000000	0.000000
2.870000	-11.680400	744.983000	-0.000000	2.766880	-0.000000	0.113206	-0.000000	-0.000000	-0.000000	0.000000	0.000000	0.000000	0.000000	0.000000	0.000000	0.000000	0.000000	0.000000
2.880000	-8.668320	739.393000	-0.000000	2.768850	-0.000000	0.113386	-0.000000	-0.000000	-0.000000	0.000000	0.000000	0.000000	0.000000	0.000000	0.000000	0.000000	0.000000	0.000000
2.890000	-6.254190	730.073000	-0.000000	2.771130	-0.000000	0.113597	-0.000000	-0.000000	-0.000000	0.000000	0.000000	0.000000	0.000000	0.000000	0.000000	0.000000	0.000000	0.000000
2.900000	-4.193990	719.461000	-0.000000	2.773590	-0.000000	0.113824	-0.000000	-0.000000	-0.000000	0.000000	0.000000	0.000000	0.000000	0.000000	0.000000	0.000000	0.000000	0.000000
2.910000	-2.502940	707.822000	-0.000000	2.776340	-0.000000	0.114080	-0.000000	-0.000000	-0.000000	0.000000	0.000000	0.000000	0.000000	0.000000	0.000000	0.000000	0.000000	0.000000
2.920000	-1.661830	694.451000	-0.000000	2.779390	-0.000000	0.114364	-0.000000	-0.000000	-0.000000	0.000000	0.000000	0.000000	0.000000	0.000000	0.000000	0.000000	0.000000	0.000000
2.930000	-1.252950	680.494000	-0.000000	2.782730	-0.000000	0.114676	-0.000000	-0.000000	-0.000000	0.000000	0.000000	0.000000	0.000000	0.000000	0.000000	0.000000	0.000000	0.000000
